<?xml version="1.0" encoding="UTF-8" standalone="no"?>
<!-- Created with Inkscape (http://www.inkscape.org/) -->

<svg
   xmlns:dc="http://purl.org/dc/elements/1.1/"
   xmlns:cc="http://creativecommons.org/ns#"
   xmlns:rdf="http://www.w3.org/1999/02/22-rdf-syntax-ns#"
   xmlns:svg="http://www.w3.org/2000/svg"
   xmlns="http://www.w3.org/2000/svg"
   xmlns:sodipodi="http://sodipodi.sourceforge.net/DTD/sodipodi-0.dtd"
   xmlns:inkscape="http://www.inkscape.org/namespaces/inkscape"
   width="60.925812mm"
   height="45.062195mm"
   viewBox="0 0 215.87886 159.66919"
   id="svg2"
   version="1.1"
   inkscape:version="0.91 r13725"
   sodipodi:docname="corner-logo.svg">
  <defs
     id="defs4" />
  <sodipodi:namedview
     id="base"
     pagecolor="#ffffff"
     bordercolor="#666666"
     borderopacity="1.0"
     inkscape:pageopacity="0.0"
     inkscape:pageshadow="2"
     inkscape:zoom="0.35"
     inkscape:cx="-229.59437"
     inkscape:cy="-54.22101"
     inkscape:document-units="px"
     inkscape:current-layer="layer1"
     showgrid="false"
     fit-margin-top="0"
     fit-margin-left="0"
     fit-margin-right="0"
     fit-margin-bottom="0"
     inkscape:window-width="1440"
     inkscape:window-height="797"
     inkscape:window-x="0"
     inkscape:window-y="0"
     inkscape:window-maximized="1" />
  <metadata
     id="metadata7">
    <rdf:RDF>
      <cc:Work
         rdf:about="">
        <dc:format>image/svg+xml</dc:format>
        <dc:type
           rdf:resource="http://purl.org/dc/dcmitype/StillImage" />
        <dc:title></dc:title>
      </cc:Work>
    </rdf:RDF>
  </metadata>
  <g
     inkscape:label="Vrstva 1"
     inkscape:groupmode="layer"
     id="layer1"
     transform="translate(-263.25144,-483.35513)">
    <path
       inkscape:connector-curvature="0"
       id="path4151"
       d="m 285.78571,641.73767 c -8.92464,-2.95639 -17.58657,-8.99624 -20.76714,-14.48064 l -1.76713,-3.04715 3.21233,-3.00219 c 1.76679,-1.6512 4.26591,-3.56604 5.5536,-4.25519 2.15993,-1.15596 2.67286,-0.89182 6.62279,3.41047 6.60817,7.19766 14.26403,9.51352 20.60691,6.23349 4.72061,-2.44112 7.03864,-6.2148 7.03864,-11.45867 0,-5.95933 -2.45492,-8.40979 -17.5,-17.46822 -13.02015,-7.83924 -17.91692,-12.77955 -20.09573,-20.27439 -2.56211,-8.81334 -0.41352,-17.10025 6.10278,-23.53787 5.40492,-5.33966 10.6826,-7.07618 20.17281,-6.63746 8.95709,0.41407 16.23175,3.41259 22.61206,9.32038 4.21236,3.9004 4.17271,4.21961 -1.30752,10.52773 -3.3905,3.9027 -2.37701,4.10538 -12.11303,-2.42236 -2.99974,-2.01125 -6.00511,-3.06875 -9.57806,-3.37024 -4.7496,-0.40079 -5.47384,-0.17219 -8.25,2.60396 -4.13579,4.13579 -4.15495,8.86148 -0.0549,13.53121 1.64365,1.87201 7.60615,6.13685 13.25,9.47743 9.92051,5.87191 18.19591,13.08831 20.77755,18.11864 1.74166,3.39362 1.57371,16.7622 -0.26561,21.14261 -5.06214,12.05561 -21.8499,19.69627 -34.25038,15.58846 z m 75.49976,-0.98968 c -4.12513,-1.22173 -9.69431,-3.44762 -12.37595,-4.94642 -2.68164,-1.4988 -5.70338,-2.72509 -6.71497,-2.72509 -2.82264,0 -8.90884,-5.83861 -8.90884,-8.54643 0,-1.28659 -0.89597,-3.8578 -1.99104,-5.7138 -4.31747,-7.31757 -6.19999,-14.82939 -6.19999,-24.73977 0,-10.37333 1.84235,-17.31919 6.58768,-24.83628 1.43184,-2.26819 2.60335,-4.98056 2.60335,-6.02749 0,-2.13103 7.5994,-9.50185 8.9414,-8.67245 0.47322,0.29247 4.1675,-1.02617 8.2095,-2.93031 14.33332,-6.75226 28.68939,-6.75905 42.48857,-0.0201 3.92671,1.91764 7.99789,3.48662 9.04705,3.48662 2.24098,0 9.8092,7.3889 8.96587,8.75343 -0.31747,0.51368 1.13964,4.35147 3.23802,8.52843 7.57289,15.07428 7.39927,31.26607 -0.48306,45.05039 -1.31079,2.29226 -2.38868,4.93959 -2.3953,5.88295 -0.0161,2.29872 -5.58814,8.53311 -8.32364,9.31316 -1.20362,0.34323 -4.74713,1.9508 -7.87446,3.5724 -6.21783,3.22409 -19.33312,6.93047 -24.22391,6.84566 -1.69952,-0.0295 -6.46515,-1.05318 -10.59028,-2.27491 z m 22.83897,-20.08182 c 4.48885,-2.32974 14.37726,-12.86162 15.83519,-16.86565 1.86304,-5.11661 1.56065,-15.61077 -0.58602,-20.33786 -2.29384,-5.05116 -9.75255,-12.66429 -15.06029,-15.3721 -5.24099,-2.67375 -17.12723,-2.79287 -22.66841,-0.22718 -5.10172,2.36222 -13.85356,11.09782 -15.91903,15.8895 -2.18029,5.05804 -2.19734,15.66217 -0.0334,20.79235 2.07446,4.91814 13.20531,15.78463 17.73403,17.31285 4.73338,1.59728 16.64555,0.9113 20.69796,-1.19191 z m -21.82795,-7.0767 c -2.72628,-3.28496 1.47204,-8.51299 6.83627,-8.51299 3.64,0 4.15295,-1.99365 4.15295,-16.14098 0,-13.67241 0.81284,-16.99942 3.08742,-12.63703 0.65328,1.25291 3.37586,4.61357 6.05018,7.46815 3.19854,3.41413 4.8624,6.06609 4.8624,7.75 0,3.46852 -0.69818,3.21797 -2.40305,-0.86236 -1.61166,-3.85724 -5.8176,-7.09082 -8.08923,-6.21912 -1.23306,0.47317 -1.50772,2.87012 -1.50772,13.1577 0,12.31835 -0.0549,12.62998 -2.64602,15.03139 -3.01925,2.79814 -8.40491,3.30074 -10.3432,0.96524 z m 78.98922,27.55188 c -5.56431,-1.69872 -11.55494,-5.52605 -16.14852,-10.31705 -2.66831,-2.78301 -4.85148,-5.64415 -4.85148,-6.35811 0,-1.34182 8.57598,-8.38971 10.20873,-8.38971 0.50661,0 3.0758,2.21213 5.7093,4.91585 7.71725,7.923 16.61326,9.15525 23.25467,3.22115 2.49108,-2.22578 3.18001,-3.75238 3.58217,-7.93765 0.47685,-4.9627 0.33396,-5.34396 -3.37848,-9.01456 -2.13201,-2.10798 -8.20723,-6.36828 -13.50047,-9.46734 -11.96491,-7.00516 -15.19712,-9.70302 -18.61775,-15.5399 -2.24672,-3.83372 -2.70261,-5.80358 -2.70261,-11.67755 0,-5.88608 0.45442,-7.84131 2.72151,-11.70981 5.111,-8.72126 11.15397,-11.80049 23.09505,-11.76823 5.93609,0.016 9.30811,0.55748 12.50456,2.00783 5.34322,2.42441 13.71378,8.46057 14.47176,10.43584 0.32527,0.84764 -1.23651,3.42631 -3.76988,6.22452 l -4.32522,4.77734 -6.29458,-4.4154 c -4.97464,-3.48951 -7.36996,-4.50457 -11.42287,-4.84067 -4.41361,-0.36601 -5.55955,-0.0624 -8.22294,2.1787 -3.94256,3.31745 -4.81712,6.74517 -2.80359,10.98836 1.83036,3.85719 3.72065,5.3308 16.49064,12.85557 16.51981,9.73436 22.77374,18.29644 21.7346,29.75624 -0.98206,10.83029 -8.01859,20.2148 -17.60673,23.48181 -4.66258,1.5887 -15.792,1.91646 -20.12787,0.59277 z m -172.8,-106.26487 c -0.84327,-0.84327 -1.2,-6.48107 -1.2,-18.96482 0,-16.52834 0.13437,-17.83673 1.93055,-18.79801 2.96679,-1.58778 5.29415,1.24815 4.4997,5.48296 -1.4053,7.49085 1.80821,11.80851 7.45485,10.01634 1.74785,-0.55475 2.07007,-1.6281 2.32218,-7.73553 0.32156,-7.78998 2.08868,-10.46006 5.2089,-7.87051 1.3368,1.10945 1.58382,4.09721 1.58382,19.15683 0,17.00312 -0.0971,17.89433 -2.06392,18.94695 -3.6166,1.93554 -4.93608,-0.34952 -4.93608,-8.54825 0,-6.73286 -0.16822,-7.31136 -2.28015,-7.84143 -5.96107,-1.49613 -8.66822,2.78263 -7.21241,11.3995 0.53604,3.1728 0.30894,3.98387 -1.36654,4.88056 -2.49357,1.33452 -2.4814,1.3349 -3.9409,-0.12459 z m 38.05632,0.17118 c -1.23402,-0.49613 -3.14484,-2.38011 -4.24626,-4.18662 -1.77015,-2.90333 -2.00302,-5.04216 -2.00632,-18.42757 -0.003,-13.06456 0.21954,-15.22869 1.62301,-15.76725 3.67585,-1.41056 4.37325,1.06645 4.37325,15.53271 0,12.54422 0.19216,14.06971 2,15.87755 2.59626,2.59626 4.51537,2.52999 6.4433,-0.22251 1.22443,-1.74811 1.5567,-5.13713 1.5567,-15.87755 0,-10.35773 0.3316,-13.93026 1.37325,-14.79475 1.92405,-1.59682 4.53063,-0.33636 5.25254,2.53997 1.00489,4.00379 -0.19742,27.64174 -1.54826,30.43957 -2.38752,4.94495 -9.13908,7.1709 -14.82121,4.88645 z m 26.99368,-0.0738 c -0.90471,-0.93899 -1.25,-6.22025 -1.25,-19.11881 l 0,-17.82144 2.42199,-1.10353 c 3.3489,-1.52586 12.87288,-0.19609 15.95405,2.22756 3.48869,2.74421 5.04158,8.13196 5.02055,17.41885 -0.0204,9.01658 -1.83312,14.42947 -5.67533,16.94698 -3.31838,2.17429 -14.79971,3.18529 -16.47126,1.45039 z m 13.75,-7.49778 c 1.0541,-1.03218 1.5848,-4.0596 1.78528,-10.1842 0.32598,-9.95861 -0.7837,-13.05917 -5.19808,-14.52402 -4.65348,-1.54419 -5.5872,0.76199 -5.5872,13.79976 0,7.53728 0.40077,11.50964 1.24653,12.3554 1.46039,1.46039 5.56704,0.69401 7.75347,-1.44694 z m 20.25,7.93813 c -0.93782,-0.37842 -1.25,-5.20199 -1.25,-19.31406 0,-16.22948 0.21698,-18.89295 1.58179,-19.41667 2.38821,-0.91644 16.72609,-0.69812 18.2666,0.27815 0.74162,0.46998 1.18725,1.70059 0.99028,2.73469 -0.29445,1.54597 -1.41671,1.93462 -6.3138,2.1865 -7.07873,0.3641 -8.52487,1.34071 -8.52487,5.7571 0,3.83663 0.99739,4.66546 6.5,5.40151 3.15498,0.42203 4,0.95757 4,2.53506 0,1.57749 -0.84502,2.11303 -4,2.53506 -5.72707,0.76607 -6.5,1.53958 -6.5,6.5049 0,4.96944 0.42397,5.22401 9.49101,5.69873 3.97223,0.20797 5.06395,0.64509 5.34839,2.14148 0.19656,1.0341 -0.24939,2.26471 -0.99101,2.73469 -1.42418,0.90254 -16.46723,1.0828 -18.59839,0.22286 z m 32,0.0609 c -1.74539,-0.78937 -1.79207,-36.45659 -0.05,-38.19866 2.55706,-2.55706 13.69629,-0.95223 17.43395,2.51172 2.51812,2.33371 2.61736,2.79758 2.05827,9.62011 -0.44423,5.42086 -0.23455,7.64134 0.86018,9.1093 3.0394,4.07563 1.23248,12.15935 -3.39579,15.19191 -2.52968,1.65751 -14.40377,2.89757 -16.90661,1.76562 z m 12.81058,-7.45924 c 2.82195,-2.82195 2.22003,-6.94023 -1.30195,-8.90788 -3.75033,-2.09523 -6.16081,-0.48552 -6.57316,4.38952 -0.53163,6.28533 3.68744,8.70603 7.87511,4.51836 z m -0.67793,-17.80976 c 1.42581,-1.57549 1.50019,-2.29271 0.47183,-4.5497 -0.99552,-2.18493 -1.78673,-2.62406 -4.28764,-2.37966 -2.53694,0.24791 -3.12292,0.78945 -3.39141,3.13417 -0.17852,1.55896 -0.0801,3.47146 0.21861,4.25 0.77627,2.02291 4.99475,1.74838 6.98861,-0.45481 z m 18.86735,25.20806 c -2.00138,-0.80758 -1.76786,-36.66304 0.24968,-38.33746 2.51179,-2.08459 5.48277,0.8859 8.49977,8.49835 3.73705,9.42929 5.00055,9.48164 5.00055,0.20717 0,-5.1059 0.43346,-7.82063 1.37325,-8.60059 1.53426,-1.27332 4.28441,-0.57655 4.82374,1.22213 0.1934,0.64497 0.19154,9.1261 -0.004,18.84695 -0.30286,15.04649 -0.59306,17.76532 -1.95185,18.28674 -2.38623,0.91568 -4.29193,-1.58405 -7.71145,-10.11519 -4.31033,-10.75324 -5.52969,-10.65096 -5.52969,0.46386 0,7.26276 -0.30196,9.09222 -1.58179,9.58333 -0.86998,0.33385 -1.65748,0.57146 -1.75,0.52804 -0.0925,-0.0434 -0.73071,-0.30592 -1.41821,-0.58333 z m 31.5,-0.41782 c -2.5012,-1.45681 -2.16029,-3.77583 0.75,-5.10185 2.46915,-1.12502 2.5,-1.29065 2.5,-13.42186 0,-10.70838 -0.23216,-12.45027 -1.81121,-13.58949 -5.50079,-3.96857 -3.24984,-6.8067 5.39847,-6.8067 5.26671,0 6.51953,0.33102 7.38695,1.9518 0.79523,1.48591 0.676,2.26168 -0.49952,3.25 -4.49756,3.78133 -4.47469,3.70753 -4.47469,14.43537 0,10.57407 0.91056,14.36283 3.45185,14.36283 1.8271,0 2.49852,2.07103 1.37784,4.25 -0.70139,1.36372 -2.16149,1.74329 -6.61487,1.71959 -3.14315,-0.0167 -6.50232,-0.48908 -7.46482,-1.04969 z m 0.61163,-42.4199 c -0.87662,-2.28443 0.14181,-4.01948 4.15695,-7.08197 2.8434,-2.16876 4.03368,-2.55985 5.32198,-1.74861 2.96078,1.86439 2.31242,3.83775 -2.33788,7.11558 -5.10698,3.59973 -6.3072,3.88798 -7.14105,1.715 z"
       style="fill:#6bbfc0" />
    <path
       inkscape:connector-curvature="0"
       id="path4149"
       d="m 361.28571,640.74246 c -7.87376,-2.33782 -16.10688,-6.40674 -16.70678,-8.25671 -0.39027,-1.20349 7.98268,-12.42454 10.19465,-13.66242 0.82952,-0.46422 3.12961,0.13588 5.70131,1.4875 6.13948,3.22674 18.45292,3.19141 24.63702,-0.0707 3.27771,-1.72898 4.65299,-2.01086 5.67454,-1.16304 2.76254,2.2927 9.49926,11.74251 9.49926,13.32491 0,2.21701 -8.3804,6.34207 -17.75585,8.73991 -9.45286,2.41763 -11.91199,2.37139 -21.24415,-0.39946 z m 43.08485,-23.67503 c -3.26403,-2.71635 -6.23394,-5.42317 -6.59981,-6.01516 -0.36587,-0.59198 0.14404,-2.74121 1.13312,-4.77606 2.82152,-5.80472 3.05807,-16.88256 0.48474,-22.70002 -1.1566,-2.61467 -2.1029,-5.3013 -2.1029,-5.97029 0,-1.03598 4.16281,-4.88822 11.25,-10.41068 2.47686,-1.93001 4.42773,-0.082 7.79222,7.38126 6.33387,14.05012 5.8862,28.4083 -1.31684,42.23529 -1.21349,2.32941 -2.76875,4.45111 -3.45614,4.71489 -0.68739,0.26377 -3.92037,-1.74288 -7.18439,-4.45923 z m -73.92744,0.25905 c -7.64868,-15.23045 -7.42956,-33.16284 0.5743,-47 1.35208,-2.3375 3.07372,-4.25 3.82585,-4.25 1.56264,0 11.23582,7.67536 12.7637,10.12759 0.74613,1.19753 0.40537,2.915 -1.28965,6.5 -2.81788,5.95983 -3.1226,15.92002 -0.66525,21.74453 0.8985,2.12967 1.63364,4.65079 1.63364,5.60249 0,1.96487 -11.00801,11.02539 -13.39522,11.02539 -0.86027,0 -2.41159,-1.6875 -3.44737,-3.75 z m 53.84259,-49.25 c -4.39003,-2.40344 -18.12424,-2.71558 -22,-0.5 -4.65315,2.65998 -6.59263,1.89124 -11.95802,-4.73975 -2.77685,-3.43186 -4.91867,-6.69436 -4.7596,-7.25 0.15906,-0.55564 3.1981,-2.46447 6.75341,-4.24186 12.80433,-6.40119 28.09199,-6.39889 40.92841,0.006 3.55532,1.77401 6.60967,3.72603 6.78746,4.33782 0.30242,1.0407 -7.91576,12.00673 -10.20888,13.62234 -1.40453,0.98959 -1.53188,0.96122 -5.54278,-1.23465 z"
       style="fill:#df333a" />
  </g>
</svg>
