<?xml version="1.0" encoding="UTF-8" standalone="no"?>
<!-- Generator: Adobe Illustrator 15.0.2, SVG Export Plug-In . SVG Version: 6.00 Build 0)  -->

<svg
   xmlns:dc="http://purl.org/dc/elements/1.1/"
   xmlns:cc="http://creativecommons.org/ns#"
   xmlns:rdf="http://www.w3.org/1999/02/22-rdf-syntax-ns#"
   xmlns:svg="http://www.w3.org/2000/svg"
   xmlns="http://www.w3.org/2000/svg"
   xmlns:sodipodi="http://sodipodi.sourceforge.net/DTD/sodipodi-0.dtd"
   xmlns:inkscape="http://www.inkscape.org/namespaces/inkscape"
   version="1.1"
   id="Layer_1"
   x="0px"
   y="0px"
   width="554.87097"
   height="413.19299"
   viewBox="0 0 554.87097 413.19299"
   enable-background="new 0 0 798.419 509.975"
   xml:space="preserve"
   inkscape:version="0.91 r13725"
   sodipodi:docname="logo_hudebni_sos_barva01.svg"><metadata
     id="metadata41"><rdf:RDF><cc:Work
         rdf:about=""><dc:format>image/svg+xml</dc:format><dc:type
           rdf:resource="http://purl.org/dc/dcmitype/StillImage" /><dc:title></dc:title></cc:Work></rdf:RDF></metadata><defs
     id="defs39" /><sodipodi:namedview
     pagecolor="#ffffff"
     bordercolor="#666666"
     borderopacity="1"
     objecttolerance="10"
     gridtolerance="10"
     guidetolerance="10"
     inkscape:pageopacity="0"
     inkscape:pageshadow="2"
     inkscape:window-width="1126"
     inkscape:window-height="616"
     id="namedview37"
     showgrid="false"
     fit-margin-top="0"
     fit-margin-left="0"
     fit-margin-right="0"
     fit-margin-bottom="0"
     inkscape:zoom="0.46276778"
     inkscape:cx="266.6635"
     inkscape:cy="198.0135"
     inkscape:window-x="0"
     inkscape:window-y="0"
     inkscape:window-maximized="0"
     inkscape:current-layer="Layer_1" /><g
     id="g3"
     transform="translate(-132.546,-39.808)"><path
       d="m 459.869,389.797 c -12.532,9.41 -28.123,14.989 -44.976,14.989 -17.095,0 -32.915,-5.758 -45.575,-15.476 l -30.041,36.94 c 20.802,16.376 47.068,26.1 75.615,26.1 28.253,0 54.275,-9.55 75.036,-25.613 l -30.059,-36.94 z M 339.634,329.523 c 0,-17.269 5.815,-33.167 15.648,-45.888 L 318.39,253.598 c -16.542,20.931 -26.316,47.257 -26.316,75.925 0,27.357 8.928,52.594 24.102,72.982 l 37.005,-30.039 c -8.579,-12.185 -13.547,-26.986 -13.547,-42.943 z m 172.409,-75.206 -36.935,30.046 c 9.478,12.594 15.051,28.249 15.051,45.16 0,16.188 -5.103,31.182 -13.857,43.482 l 37.003,30.107 c 15.35,-20.456 24.466,-45.943 24.466,-73.59 0.001,-28.358 -9.586,-54.395 -25.728,-75.205 z m -97.15,-47.682 c -27.232,0 -52.411,8.883 -72.734,23.875 l 30.096,37.063 c 12.118,-8.393 26.808,-13.313 42.638,-13.313 16.246,0 31.307,5.161 43.613,13.974 l 30.098,-37.065 c -20.521,-15.413 -46.056,-24.534 -73.711,-24.534 z"
       id="path5"
       inkscape:connector-curvature="0"
       style="clip-rule:evenodd;fill:#e30c19;fill-rule:evenodd" /><polygon
       points="473.672,285.563 472.767,284.729 458.361,270.271 457.542,269.433 458.506,268.232 488.604,231.167 493.884,224.693 518.346,249.157 512.043,254.317 475.108,284.363 "
       id="polygon7"
       style="clip-rule:evenodd;fill:#61bfbe;fill-rule:evenodd" /><polygon
       points="334.896,431.656 329.853,426.675 315.454,412.22 310.415,407.186 316.177,402.506 353.183,372.467 355.167,370.833 355.999,371.681 370.4,386.077 371.241,386.982 369.318,389.311 339.277,426.251 "
       id="polygon9"
       style="clip-rule:evenodd;fill:#61bfbe;fill-rule:evenodd" /><polygon
       points="355.283,283.636 318.391,253.599 312.939,249.157 317.917,244.186 332.375,229.729 337.41,224.693 342.159,230.51 372.254,267.572 373.75,269.433 372.907,270.271 357.625,285.563 "
       id="polygon11"
       style="clip-rule:evenodd;fill:#61bfbe;fill-rule:evenodd" /><polygon
       points="493.884,431.656 489.929,426.737 459.869,389.797 457.542,386.925 458.361,386.077 472.82,371.681 473.672,370.833 476.303,373.006 513.306,403.113 518.346,407.186 513.374,412.22 498.919,426.617 "
       id="polygon13"
       style="clip-rule:evenodd;fill:#61bfbe;fill-rule:evenodd" /><path
       d="m 453.027,323.914 c -0.756,-19.768 -24.052,-25.83 -29.881,-42.071 -0.694,-1.913 -0.468,-4.566 -1.292,-6.773 l -5.257,0 0,82.99 c -12.994,-4.88 -33.758,4.053 -31.65,17.678 0.612,4.058 4.815,7.142 9.125,7.853 11.443,1.957 24.076,-5.135 26.658,-14.516 0.501,-1.89 0.877,-3.868 1.123,-5.896 l 0,-62.371 c 26.042,2.121 33.875,33.091 18.362,52.373 7.372,-6.245 13.237,-18.464 12.812,-29.267 z"
       id="path15"
       inkscape:connector-curvature="0"
       style="clip-rule:evenodd;fill:#61bfbe;fill-rule:evenodd" /><path
       d="m 186.651,118.527 0,-10.468 c 0,-1.954 -0.417,-15.772 -0.836,-30.707 l 17.307,0 c -0.279,9.073 -0.838,28.054 -0.838,30.707 l 0,39.221 c 0,2.373 0.559,22.052 0.838,30.565 l -17.307,0 c 0.559,-16.332 0.836,-28.612 0.836,-30.565 l 0,-13.958 -25.96,0 0,13.958 c 0,1.814 0.28,14.933 0.838,30.565 l -17.309,0 c 0.279,-9.073 0.837,-28.053 0.837,-30.565 l 0,-39.221 c 0,-2.513 -0.558,-22.193 -0.837,-30.707 l 17.309,0 c -0.559,15.772 -0.838,28.613 -0.838,30.707 l 0,10.468 25.96,0 z"
       id="path17"
       inkscape:connector-curvature="0"
       style="fill:#61bfbe" /><path
       d="m 245.128,77.352 c -0.279,6.001 -0.279,8.653 -0.559,18.981 -0.14,6.283 -0.279,10.331 -0.279,11.586 l 0,34.195 c 0,8.094 0.419,11.166 1.813,14.378 2.233,4.744 6.7,7.815 11.725,7.815 5.861,0 10.467,-3.769 11.864,-9.911 0.557,-2.231 0.976,-7.256 0.976,-11.723 l 0,-34.754 c 0,-2.374 -0.557,-21.774 -0.836,-30.567 l 17.306,0 c -0.14,5.582 -0.419,11.865 -0.559,18.981 -0.14,6.283 -0.279,10.61 -0.279,11.586 l 0,34.754 c 0,12.002 -0.557,15.913 -3.348,21.774 -3.908,8.793 -14.517,15.072 -25.264,15.072 -11.446,0 -22.192,-7.117 -26.379,-17.726 -2.094,-5.301 -2.653,-9.072 -2.653,-19.12 l 0,-34.754 c 0,-2.374 -0.559,-22.053 -0.699,-25.402 0,-0.699 0,-2.792 -0.137,-5.165 l 17.308,0 z"
       id="path19"
       inkscape:connector-curvature="0"
       style="fill:#61bfbe" /><path
       d="m 335.565,77.352 c 13.818,0 22.192,3.768 28.332,12.84 5.025,7.538 7.817,20.938 7.817,38.244 0,21.077 -3.91,34.893 -11.725,42.01 -5.584,5.166 -12.98,7.399 -24.425,7.399 l -24.704,0 c 0.279,-9.492 0.836,-27.917 0.836,-30.565 l 0,-39.361 c 0,-2.513 -0.557,-21.354 -0.836,-30.567 l 24.705,0 z m -0.559,85.699 c 16.331,0 20.518,-7.257 20.518,-35.453 0,-27.774 -4.466,-35.451 -20.518,-35.451 l -7.677,0 0,70.904 7.677,0 z"
       id="path21"
       inkscape:connector-curvature="0"
       style="fill:#61bfbe" /><path
       d="m 452.661,77.352 0,14.794 -38.944,0 0,26.938 28.339,0 0,14.795 -28.339,0 0,29.171 39.922,0 0,14.794 -56.388,0 c 0.14,-1.534 0.277,-7.815 0.556,-18.984 0.14,-6.418 0.279,-11.025 0.279,-11.582 l 0,-39.221 -0.279,-11.726 c -0.14,-8.094 -0.279,-12.421 -0.279,-13.12 -0.137,-1.535 -0.137,-2.649 -0.277,-5.861 l 55.41,0 z"
       id="path23"
       inkscape:connector-curvature="0"
       style="fill:#61bfbe" /><path
       d="m 500.668,77.352 c 13.818,0 19.681,1.255 25.4,5.582 6.144,4.746 9.771,12.703 9.771,21.496 0,8.374 -3.348,15.493 -9.492,20.238 9.352,5.861 13.539,13.4 13.539,24.006 0,10.746 -4.466,19.399 -12.84,24.705 -5.305,3.348 -10.051,4.466 -18.983,4.466 l -28.195,0 c 0.279,-9.492 0.837,-27.917 0.837,-30.565 l 0,-39.221 c 0,-2.653 -0.558,-21.494 -0.837,-30.707 l 20.8,0 z m 1.538,41.175 c 10.884,0 17.44,-5.583 17.44,-14.656 0,-4.885 -2.23,-8.793 -6.138,-10.327 -2.091,-0.979 -5.724,-1.397 -10.465,-1.397 l -6.702,0 0,26.38 5.865,0 z m 4.884,44.524 c 5.719,0 8.788,-0.699 11.443,-2.652 3.349,-2.512 5.165,-6.42 5.165,-11.166 0,-5.165 -2.236,-9.911 -6.003,-12.703 -3.069,-2.371 -7.116,-3.349 -13.12,-3.349 l -8.234,0 0,29.87 10.749,0 z"
       id="path25"
       inkscape:connector-curvature="0"
       style="fill:#61bfbe" /><path
       d="m 615.902,77.352 c -0.419,9.771 -0.839,27.776 -0.839,30.567 l 0,70.904 -13.957,0 -25.68,-63.787 0,32.104 c 0,2.789 0.419,20.794 0.833,30.705 l -17.307,0 c 0.279,-9.073 0.838,-28.053 0.838,-30.705 l 0,-69.788 16.469,0 23.174,58.062 0,-27.495 c 0,-3.209 -0.424,-20.795 -0.838,-30.567 l 17.307,0 z"
       id="path27"
       inkscape:connector-curvature="0"
       style="fill:#61bfbe" /><path
       d="m 640.498,92.146 0,-14.794 41.735,0 0,14.794 -12.562,0 c -0.419,11.584 -0.419,13.399 -0.419,15.772 l 0,39.361 c 0,1.255 0.14,4.326 0.419,15.771 l 12.562,0 0,14.794 -41.735,0 0,-14.794 12.701,0 c 0.419,-12.144 0.419,-13.538 0.419,-15.771 l 0,-39.361 c 0,-0.976 -0.14,-4.188 -0.419,-15.772 l -12.701,0 z"
       id="path29"
       inkscape:connector-curvature="0"
       style="fill:#61bfbe" /><polygon
       points="668.245,39.808 679.428,52.322 649.869,71.764 641.616,61.111 "
       id="polygon31"
       style="fill:#61bfbe" /><path
       d="m 261.035,269.211 c -12.587,-10.263 -15.24,-12.248 -18.885,-14.898 -11.25,-7.95 -20.532,-11.592 -30.795,-11.592 -15.227,0 -27.814,11.259 -27.814,25.17 0,11.586 8.275,22.182 24.509,31.789 l 24.497,14.241 c 39.744,23.514 51.989,39.74 51.989,69.208 0,41.729 -28.807,69.872 -72.189,69.872 -24.497,0 -45.027,-8.605 -62.254,-25.831 -4.96,-4.63 -4.96,-4.63 -17.547,-20.529 l 29.803,-23.844 c 11.59,16.227 11.59,16.227 16.222,20.533 10.262,9.275 20.537,13.574 31.458,13.574 20.872,0 36.099,-14.239 36.099,-33.775 0,-14.243 -6.287,-21.527 -33.117,-37.417 l -26.817,-15.567 c -27.822,-16.55 -41.06,-36.43 -41.06,-60.934 0,-36.424 27.478,-62.582 65.89,-62.582 25.502,0 48.354,10.929 72.864,35.1 l -22.853,27.482 z"
       id="path33"
       inkscape:connector-curvature="0"
       style="fill:#61bfbe" /><path
       d="M 663.915,268.893 C 651.33,258.625 648.679,256.64 645.033,253.99 c -11.25,-7.944 -20.53,-11.586 -30.793,-11.586 -15.229,0 -27.814,11.254 -27.814,25.159 0,11.592 8.272,22.191 24.51,31.794 L 635.43,313.6 c 39.744,23.507 51.987,39.734 51.987,69.207 0,41.729 -28.803,69.871 -72.185,69.871 -24.5,0 -45.029,-8.609 -62.254,-25.829 -4.962,-4.636 -4.962,-4.636 -17.547,-20.53 l 29.8,-23.845 c 11.587,16.228 11.587,16.228 16.222,20.534 10.263,9.27 20.54,13.578 31.458,13.578 20.871,0 36.096,-14.243 36.096,-33.779 0,-14.238 -6.282,-21.528 -33.114,-37.418 l -26.817,-15.566 c -27.82,-16.555 -41.06,-36.425 -41.06,-60.93 0,-36.428 27.478,-62.587 65.886,-62.587 25.508,0 48.355,10.93 72.869,35.1 l -22.856,27.487 z"
       id="path35"
       inkscape:connector-curvature="0"
       style="fill:#61bfbe" /></g></svg>