<?xml version="1.0" encoding="UTF-8" standalone="no"?>
<!-- Created with Inkscape (http://www.inkscape.org/) -->

<svg
   xmlns:dc="http://purl.org/dc/elements/1.1/"
   xmlns:cc="http://creativecommons.org/ns#"
   xmlns:rdf="http://www.w3.org/1999/02/22-rdf-syntax-ns#"
   xmlns:svg="http://www.w3.org/2000/svg"
   xmlns="http://www.w3.org/2000/svg"
   xmlns:sodipodi="http://sodipodi.sourceforge.net/DTD/sodipodi-0.dtd"
   xmlns:inkscape="http://www.inkscape.org/namespaces/inkscape"
   id="svg4335"
   version="1.1"
   inkscape:version="0.91 r13725"
   width="1440"
   height="1920"
   viewBox="0 0 1440 1920"
   sodipodi:docname="enlightened.svg">
  <metadata
     id="metadata4341">
    <rdf:RDF>
      <cc:Work
         rdf:about="">
        <dc:format>image/svg+xml</dc:format>
        <dc:type
           rdf:resource="http://purl.org/dc/dcmitype/StillImage" />
        <dc:title></dc:title>
      </cc:Work>
    </rdf:RDF>
  </metadata>
  <defs
     id="defs4339" />
  <sodipodi:namedview
     pagecolor="#ffffff"
     bordercolor="#666666"
     borderopacity="1"
     objecttolerance="10"
     gridtolerance="10"
     guidetolerance="10"
     inkscape:pageopacity="0"
     inkscape:pageshadow="2"
     inkscape:window-width="1440"
     inkscape:window-height="797"
     id="namedview4337"
     showgrid="false"
     inkscape:zoom="0.30989583"
     inkscape:cx="35.89916"
     inkscape:cy="960"
     inkscape:window-x="0"
     inkscape:window-y="0"
     inkscape:window-maximized="1"
     inkscape:current-layer="svg4335" />
  <path
     style="fill:#00ff00;fill-opacity:1"
     d="m 581.12282,1450.7233 0.25112,-440.6381 10,0.3881 c 18.54274,0.7195 52.9124,0.1869 65.5,-1.0152 44.77237,-4.2755 90.52353,-17.32589 116.26353,-33.16389 l 5.02686,-3.093 -0.69199,7.6363 c -1.53676,16.9587 -8.11946,35.46809 -17.68586,49.72949 -5.64998,8.4229 -20.66068,23.1258 -29.90785,29.2944 -15.3143,10.2159 -37.68074,19.8111 -55.50469,23.8115 l -6,1.3466 -0.25193,255.671 c -0.13856,140.619 0.0864,255.6393 0.5,255.6007 0.41356,-0.039 4.12693,-4.2011 8.25194,-9.25 4.125,-5.0489 22.575,-24.2548 41,-42.6798 34.44242,-34.4424 42.10586,-43.3087 54.45315,-63 37.304,-59.4919 51.9488,-129.806 40.47076,-194.3121 -4.04092,-22.7098 -11.81524,-51.0235 -18.79155,-68.4379 -1.15675,-2.8875 -1.73705,-5.25 -1.28956,-5.25 1.65837,0 19.96958,15.9519 29.34708,25.5658 18.28002,18.7409 30.94585,36.3685 40.90852,56.9342 14.34481,29.6117 19.53814,57.0617 17.04421,90.0895 -4.29968,56.9418 -15.81822,94.8427 -42.21653,138.9105 -2.96524,4.95 -16.45913,25.65 -29.98642,46 -40.66766,61.179 -55.6912,86.3411 -97.91955,164 -62.11845,114.2372 -70.98979,128.8507 -85.32898,140.5602 -10.93975,8.9334 -28.15897,15.8858 -39.44226,15.925 l -4.25113,0.015 0.25113,-440.6381 z m 358.89365,-263.1119 c -0.6912,-67.2563 -7.91723,-87.5839 -47.72319,-134.25 -29.60627,-34.7087 -41.54577,-53.1508 -48.2316,-74.50009 -2.41445,-7.7098 -2.19906,-21.9068 0.41722,-27.5 1.38795,-2.9672 17.29831,-21.0202 46.70959,-53 49.07938,-53.3654 46.02405,-50.70175 60.70888,-52.92771 13.5527,-2.05436 23.9073,0.34355 43.1413,9.99067 36.36523,18.23948 87.77143,55.07114 116.43603,83.42434 8.9911,8.8934 11.3993,13.7669 11.3993,23.0687 0,7.1035 -1.9157,11.1352 -9.3426,19.6622 -3.4883,4.005 -17.0598,20.55679 -30.1589,36.78179 -13.0991,16.225 -27.9371,34.2251 -32.9734,40.0001 -29.7388,34.1008 -51.78953,65.4518 -65.10123,92.5588 -9.5727,19.4932 -14.0289,26.7491 -23.1669,37.7211 -5.6758,6.815 -19.1495,18.7201 -21.1865,18.7201 -0.3987,0 -0.8163,-8.8875 -0.928,-19.75 z m 47.7709,-156.0094 c 1.4226,-1.0482 8.6616,-9.0895 16.08663,-17.8696 7.425,-8.7801 17.2032,-20.14829 21.7292,-25.26249 8.5468,-9.6574 10.2551,-13.1252 10.2652,-20.8383 0.013,-9.5676 -4.9865,-15.1319 -32.9712,-36.6989 -12.54333,-9.6668 -18.92193,-11.7722 -29.20033,-9.6384 -5.0273,1.0437 -6.1347,1.8574 -15.4399,11.3457 -20.51793,20.9213 -27.78213,30.5312 -28.94603,38.2931 -1.2679,8.4547 -0.1555,10.7234 11.41833,23.2872 12.0467,13.07699 20.3705,22.78549 27.4283,31.99099 2.6311,3.4316 5.7811,6.6637 7,7.1825 3.1701,1.3489 9.6065,0.4358 12.6298,-1.7918 z M 544.87394,916.24631 c -21.64218,-1.9136 -48.07094,-8.214 -69.31557,-16.5242 -22.08625,-8.6394 -52.69343,-26.56709 -72.23367,-42.30975 -8.68734,-6.99898 -37.45076,-35.36657 -37.45076,-36.93536 0,-0.53597 3.0375,-0.086 6.75,0.99999 40.30614,11.79011 96.10047,21.21409 147.75,24.95581 24.04016,1.74158 73.73674,1.48059 93,-0.4884 53.38193,-5.45642 118.00876,-20.47896 178.29032,-41.44367 l 17.2903,-6.01322 -4.03949,4.82472 c -7.67489,9.16683 -32.46877,31.25575 -49.6514,44.23456 -67.83369,51.23782 -140.2911,74.89772 -210.38973,68.69952 z M 179.1958,813.36329 c -36.71379,-5.14027 -70.36526,-30.74233 -95.742968,-72.84131 -0.66734,-1.10704 1.68431,-1.21777 13.55686,-0.63839 16.870548,0.82329 39.828388,-0.71057 54.364248,-3.6322 23.40036,-4.70334 42.42217,-15.47335 99,-56.05305 41.05566,-29.44664 50.63186,-35.44867 89.87336,-56.32954 46.54418,-24.76671 68.48823,-34.17254 101.12664,-43.34573 63.78779,-17.92787 142.55258,-16.65561 216,3.48897 46.62966,12.78921 80.51657,27.60779 142.00001,62.09592 29.13409,16.3423 37.02396,21.58614 70.71488,46.99922 43.52001,32.82714 57.07161,39.99575 82.76434,43.78108 11.4245,1.68319 27.5074,6.65292 36.6923,11.33819 10.3294,5.26906 10.0271,4.50976 5.4382,13.66104 -9.4577,18.86073 -27.4594,31.95732 -52.141,37.93366 -14.94553,3.61887 -31.87949,4.96335 -46.46873,3.68941 -24.36724,-2.12776 -37.87622,-7.35588 -73.99999,-28.6388 -98.87466,-58.25364 -188.32553,-82.97031 -283.92053,-78.45166 -41.46139,1.95982 -77.17879,7.70111 -118.31167,19.01767 -45.5535,12.53277 -65.24342,21.71122 -104.76781,48.83753 -49.82182,34.19362 -67.1637,42.57383 -98.5,47.59865 -11.34567,1.81929 -30.04283,2.55836 -37.67814,1.48934 z M 1012.769,693.82652 c -4.7328,-0.73762 -10.0199,-1.93154 -11.7492,-2.65315 -1.72933,-0.72161 -30.78053,-22.46202 -64.55836,-48.31202 -67.52778,-51.67884 -66.38971,-50.63576 -70.84008,-64.92744 -1.74634,-5.6081 -2.18276,-9.35024 -2.10768,-18.07256 0.19694,-22.87908 7.85464,-43.80751 26.60881,-72.72162 4.5383,-6.9969 12.23243,-18.85494 17.09807,-26.35122 21.14228,-32.57302 27.35128,-49.63685 30.72028,-84.42716 0.6658,-6.875 1.34243,-12.65679 1.50353,-12.84842 0.1612,-0.19162 5.233,2.21825 11.2707,5.35527 17.4978,9.09133 29.2457,18.65039 50.58123,41.15681 21.6368,22.82433 40.9204,41.45221 61.583,59.48897 7.9721,6.95895 25.5197,23.83513 38.9947,37.50263 77.5442,78.65192 75.9308,76.95184 78.6363,82.86153 3.2256,7.0457 2.9765,14.03911 -0.7042,19.76995 -5.3575,8.34154 -57.0242,43.22282 -101.7798,68.7137 -18.8811,10.75387 -25.3233,13.55465 -35.7799,15.55533 -9.0792,1.73712 -17.9247,1.70994 -29.4774,-0.0906 z m 13.105,-76.7128 c 1.925,-0.58565 5.075,-2.10887 7,-3.38492 5.4065,-3.58392 31.8837,-31.84495 33.533,-35.79221 2.8723,-6.87433 0.9568,-15.12297 -4.6857,-20.17827 -3.0432,-2.72649 -56.4166,-38.65792 -60.3473,-40.62628 -4.94643,-2.47704 -13.13973,-4.00736 -17.50573,-3.26972 -5.9121,0.99884 -9.0712,4.22851 -15.3943,15.73822 -3.1004,5.64344 -8.8798,14.76081 -12.8431,20.26081 -6.8541,9.51148 -7.2066,10.26937 -7.2148,15.51399 -0.016,10.38756 5.7745,16.80397 29.9579,33.19355 31.01763,21.02124 34.67143,22.44774 47.50003,18.54483 z M 741.95821,548.74553 c -0.15278,-2.02321 -21.24739,-23.39955 -27.4776,-27.84458 -7.22125,-5.1521 -11.06095,-6.71666 -23.10666,-9.4153 -21.38159,-4.79019 -27.01363,-5.1243 -86.37835,-5.1243 l -56.12166,0 0,-219.5 0,-219.500005 8.25,0.004 c 15.48295,0.007 32.09044,3.61788 43.98937,9.56292 35.31674,17.64527 165.0752,125.398495 207.04502,171.933085 11.27797,12.5046 23.81518,30.62349 29.5863,42.75841 13.65696,28.71644 11.80978,50.20483 -5.82103,67.71652 -13.1155,13.02688 -39.35141,23.08741 -66.87952,25.64588 l -7.29749,0.67823 5.56092,-7.75076 c 13.26783,-18.4926 17.45186,-35.0119 11.71572,-46.25568 -8.3905,-16.44672 -24.97794,-29.53193 -52.14928,-41.13858 -30.4724,-13.01675 -49.34726,-14.66064 -57.47157,-5.00545 l -2.52844,3.00488 0,76.31939 0,76.31939 8.22089,7.73362 c 10.18109,9.57764 22.63286,19.66553 42.94453,34.79185 17.77202,13.23501 23.34874,19.00635 28.63123,29.63044 3.53218,7.10385 3.70328,7.91277 3.70155,17.5 -10e-4,8.25017 -0.38967,10.85844 -2.16574,14.55186 -1.19016,2.475 -2.20185,3.99788 -2.24819,3.38418 z"
     id="path4345"
     inkscape:connector-curvature="0" />
</svg>
