<?xml version="1.0" encoding="UTF-8" standalone="no"?>
<!-- Created with Inkscape (http://www.inkscape.org/) -->

<svg
   xmlns:dc="http://purl.org/dc/elements/1.1/"
   xmlns:cc="http://creativecommons.org/ns#"
   xmlns:rdf="http://www.w3.org/1999/02/22-rdf-syntax-ns#"
   xmlns:svg="http://www.w3.org/2000/svg"
   xmlns="http://www.w3.org/2000/svg"
   xmlns:sodipodi="http://sodipodi.sourceforge.net/DTD/sodipodi-0.dtd"
   xmlns:inkscape="http://www.inkscape.org/namespaces/inkscape"
   id="svg4976"
   version="1.1"
   inkscape:version="0.91 r13725"
   width="2048"
   height="2048"
   viewBox="0 0 2048 2048"
   sodipodi:docname="ingress.svg">
  <metadata
     id="metadata4982">
    <rdf:RDF>
      <cc:Work
         rdf:about="">
        <dc:format>image/svg+xml</dc:format>
        <dc:type
           rdf:resource="http://purl.org/dc/dcmitype/StillImage" />
        <dc:title></dc:title>
      </cc:Work>
    </rdf:RDF>
  </metadata>
  <defs
     id="defs4980" />
  <sodipodi:namedview
     pagecolor="#ffffff"
     bordercolor="#666666"
     borderopacity="1"
     objecttolerance="10"
     gridtolerance="10"
     guidetolerance="10"
     inkscape:pageopacity="0"
     inkscape:pageshadow="2"
     inkscape:window-width="1440"
     inkscape:window-height="797"
     id="namedview4978"
     showgrid="false"
     inkscape:zoom="0.20543385"
     inkscape:cx="971.01592"
     inkscape:cy="725.79457"
     inkscape:window-x="0"
     inkscape:window-y="0"
     inkscape:window-maximized="1"
     inkscape:current-layer="svg4976" />
  <g
     id="g5543">
    <path
       inkscape:connector-curvature="0"
       id="path4997"
       d="m 244.38319,1493.8353 791.66391,468.1143 801.9899,-481.8824 3.442,-915.57644 -812.316,-447.46219 -774.45376,457.78824 z"
       style="fill:#ffffff;fill-opacity:1;fill-rule:evenodd;stroke:none;stroke-width:1px;stroke-linecap:butt;stroke-linejoin:miter;stroke-opacity:1" />
    <path
       style="fill:#73d0f3"
       d="M 592.87972,1790.8914 C 352.25709,1651.9745 154.37153,1537.6584 153.13403,1536.8556 l -2.25,-1.4597 0,-507.8545 c 0,-405.08693 0.25295,-508.05558 1.25,-508.84824 3.45482,-2.74656 877.44207,-506.679712 878.75067,-506.679712 1.3098,0 875.3047,503.937252 878.7494,506.678662 0.9971,0.79349 1.25,103.76503 1.25,508.85979 l 0,507.865 -3.75,2.3334 c -6.7019,4.17 -873.7035,504.5491 -875.2544,505.142 -0.9085,0.3473 -174.78714,-99.4649 -438.99998,-252.0009 z m 520.35298,11.7744 c 44.6332,-25.7268 82.7263,-47.51 84.6513,-48.4069 1.925,-0.8969 125.45,-72.062 274.5,-158.1446 l 271.0001,-156.5138 0,-412.1554 0,-412.15542 -355.8024,-205.42383 c -195.6912,-112.98311 -356.2053,-205.42383 -356.698,-205.42383 -1.1217,0 -489.46888,281.81879 -497.03469,286.83224 -3.04426,2.01727 -52.65676,30.87381 -110.25,64.12565 l -104.71498,60.45788 0,411.59141 0,411.5915 355.25,205.1604 c 195.3875,112.8381 355.85687,205.1784 356.59867,205.2006 0.7418,0.022 37.8668,-21.009 82.5,-46.7359 z M 742.88403,1579.3689 c -192.93175,-111.4542 -285.5797,-165.4966 -285.7458,-166.6783 -0.18998,-1.3515 26.89328,-17.396 119.25,-70.6453 65.72269,-37.8933 119.4958,-69.1172 119.4958,-69.3867 0,-0.2694 -9.97734,-17.7856 -22.17186,-38.9249 -18.12682,-31.423 -22.50209,-38.3487 -23.98194,-37.9617 -0.99555,0.2603 -54.94298,31.1562 -119.88319,68.6575 -67.60111,39.0379 -118.69076,67.9472 -119.51805,67.6298 -1.25596,-0.482 -1.44296,-43.8209 -1.42965,-331.3359 0.008,-181.92976 0.34627,-331.30146 0.75076,-331.93712 0.78589,-1.235 189.77001,-110.67728 199.55052,-115.56137 3.19912,-1.59754 88.37485,-50.57723 189.27939,-108.84375 100.90455,-58.26653 184.123,-105.93914 184.9299,-105.93914 1.28114,0 1.49921,17.52168 1.7206,138.25 l 0.25352,138.25 45.49997,0 45.5,0 0.2535,-138.25 c 0.2212,-120.63905 0.4402,-138.25 1.7185,-138.25 1.0564,0 558.9697,321.40265 571.7781,329.38981 1.661,1.03575 1.75,17.95349 1.75,332.46737 0,323.7127 -0.043,331.3647 -1.8781,330.8849 -1.0329,-0.2701 -54.6955,-31.0035 -119.2501,-68.2965 -64.5545,-37.293 -118.208,-67.837 -119.2298,-67.8755 -1.4172,-0.053 -7.1393,9.0627 -24.122,38.4299 -12.2453,21.175 -22.0833,38.972 -21.8623,39.5489 0.221,0.5769 53.8259,31.8933 119.122,69.5922 65.2961,37.6988 118.8343,69.1768 118.9738,69.9511 0.166,0.9213 -71.0018,42.5331 -205.9305,120.4078 -113.4013,65.45 -207.1154,119.7298 -208.2536,120.6218 -5.4926,4.3045 -156.9245,90.8689 -158.8529,90.8065 -1.2191,-0.039 -130.69157,-74.29 -287.71657,-165.0014 z m 354.03717,-69.1769 c 35.9242,-62.2875 66.9919,-115.725 69.0393,-118.75 4.8402,-7.1513 381.0726,-658.94978 381.6886,-661.25094 0.4461,-1.66653 -24.4304,-1.73886 -515.8982,-1.5 -477.07912,0.23187 -516.35778,0.37527 -516.24734,1.8848 0.14609,1.99698 514.37824,892.86614 515.38484,892.86614 0.3938,0 30.1086,-50.9625 66.0328,-113.25 z M 982.4977,1359.6259 C 974.15121,1346.121 718.88403,902.66653 718.88403,901.67173 c 0,-0.9321 0.58603,-1.2188 1.65383,-0.809 2.85417,1.0952 261.75439,150.73417 263.59935,152.35487 1.65862,1.4571 1.73953,9.7668 1.5,154.049 -0.24846,149.6672 -0.39543,156.7993 -3.13951,152.3593 z m 94.0738,0.1703 c -0.3781,-0.3782 -0.6875,-69.1678 -0.6875,-152.8659 0,-143.6827 0.098,-152.2637 1.75,-153.7069 2.1542,-1.8817 51.8426,-30.6088 58.75,-33.9661 2.75,-1.3366 49.2691,-27.99867 103.3759,-59.24927 54.1067,-31.2505 99.2192,-57.0396 100.25,-57.3092 1.0307,-0.2695 1.8741,-0.2246 1.8741,0.1 0,0.3244 -41.7919,72.9682 -92.8709,161.43067 -51.0791,88.4625 -93.7901,162.8371 -94.9135,165.2768 -3.2657,7.0927 -74.8238,130.3054 -75.8822,130.6582 -0.5271,0.1757 -1.2678,0.01 -1.6459,-0.368 z M 898.02761,898.50173 c -72.24603,-41.72992 -131.79774,-76.31387 -132.33713,-76.85326 -0.64095,-0.64095 -0.63105,-1.19682 0.0286,-1.6045 1.27543,-0.78825 529.16742,0.52248 529.15792,1.31388 0,0.32129 -44.4413,26.21477 -98.75,57.54108 -54.3086,31.3263 -100.768,58.3628 -103.243,60.0811 -7.178,4.9835 -60.6446,35.4655 -62.1422,35.4281 -0.7468,-0.019 -60.46814,-34.1765 -132.71417,-75.9064 z"
       id="path4990"
       inkscape:connector-curvature="0" />
    <path
       style="fill:#08adec"
       d="m 958.78854,2000.192 c -39.31452,-22.6875 -236.72379,-136.65 -438.68726,-253.25 l -367.20632,-212 0.003,-507.5 0.003,-507.49998 432.13555,-249.5 C 822.71118,133.21702 1020.2574,19.220148 1024.0281,17.115648 l 6.8559,-3.82637 6.8559,3.82637 c 3.7707,2.1045 201.3173,116.101372 438.9924,253.326372 l 432.1367,249.5 0,507.49998 0,507.5 -367.2041,212 c -512.0484,295.6259 -510.0957,294.5 -510.7809,294.5 -0.338,0 -32.78094,-18.5625 -72.09546,-41.25 z m 154.74456,-195.8483 c 44.8548,-25.9041 81.9079,-46.7166 82.3402,-46.25 0.4322,0.4665 2.2126,19.2983 3.9563,41.8483 3.3641,43.5056 3.5831,45.5 4.9959,45.5 0.885,0 610.9343,-351.8425 618.3086,-356.606 l 3.75,-2.4224 0,-458.9177 0,-458.91769 -2.75,-1.89832 C 1822.6216,565.63582 1644.084,462.44268 1427.384,337.3618 1190.2981,200.51403 1032.3884,109.94202 1030.884,109.94202 c -3.3392,0 -567.15794,325.50632 -566.78015,327.21604 0.1541,0.69737 14.90518,12.86968 32.78018,27.04957 17.875,14.1799 32.5,26.31969 32.5,26.97732 0,0.65763 -47.25,28.47528 -105,61.817 -57.75,33.34172 -105.5625,61.08563 -106.25,61.65313 -0.99631,0.82241 -1.25,84.61971 -1.25,412.88632 l 0,411.8545 2.70397,1.773 c 7.54422,4.947 709.9845,410.1755 711.0935,410.2205 0.7136,0.029 37.9968,-21.1417 82.8516,-47.0457 z M 744.92403,1578.5362 c -157.00301,-90.6698 -285.59221,-165.2508 -285.75379,-165.7356 -0.16158,-0.4847 52.69542,-31.4342 117.46001,-68.7766 64.76458,-37.3425 118.59269,-68.6763 119.61802,-69.6307 1.80311,-1.6784 1.11445,-3.0361 -21,-41.3989 -19.65571,-34.0975 -23.1532,-39.6101 -24.92336,-39.2831 -1.13252,0.2092 -54.83597,30.864 -119.341,68.1218 -64.50502,37.2578 -117.91659,67.9851 -118.69237,68.2828 -1.21256,0.4653 -1.37521,-45.8868 -1.15901,-330.30237 l 0.2515,-330.84355 99,-57.2202 c 54.45,-31.47111 99.5339,-57.03999 100.18645,-56.81975 2.52232,0.85133 215.19324,170.06752 214.92788,171.01199 -0.18539,0.65982 -53.44581,1.08611 -156.56363,1.25313 l -156.28266,0.25313 0.43439,2.24687 c 0.79853,4.13041 516.20894,895.74455 517.79864,895.74575 0.9418,7e-4 26.2463,-42.8655 67.9083,-115.0377 36.524,-63.2714 66.7632,-115.2589 67.1984,-115.5278 0.4351,-0.2689 1.0246,0.986 1.3099,2.7888 0.2853,1.8028 5.0428,59.7306 10.5721,128.7285 9.6053,119.8599 9.9744,125.5242 8.2818,127.1009 -1.634,1.522 -154.4775,89.9806 -155.3733,89.9226 -0.2191,-0.014 -128.85527,-74.2101 -285.85827,-164.88 z m 114.46,-435.3061 C 709.47031,883.43333 721.5389,904.45383 722.01859,903.97413 c 0.21932,-0.2193 59.11627,33.505 130.8821,74.943 l 130.48334,75.34177 0.25323,151.0916 c 0.13927,83.1003 -0.0857,151.0789 -0.5,151.0636 -0.41428,-0.015 -56.10323,-95.9482 -123.75323,-213.184 z m 218.74677,62.1362 0.2532,-151.0758 28.3883,-16.4242 c 15.6136,-9.0334 28.7437,-16.4243 29.1781,-16.4243 0.4343,0 1.0554,2.3625 1.3802,5.25 1.3094,11.6416 15.5534,191.8768 15.5534,196.8036 0,5.1473 -1.0629,7.1457 -36.75,69.099 -20.2125,35.0891 -37.089,63.8094 -37.5032,63.8229 -0.4143,0.014 -0.6393,-67.9596 -0.5,-151.0512 z M 900.46107,897.94913 c -70.90762,-40.94916 -129.38512,-74.91519 -129.95,-75.48007 -0.70272,-0.70272 26.95651,-1.02704 87.59036,-1.02704 l 88.61739,0 7.52097,5.75 c 24.65294,18.8479 137.53771,108.92561 137.58601,109.78831 0.068,1.2112 -58.924,35.4714 -61.0263,35.4418 -0.7785,-0.011 -59.4308,-33.5238 -130.33843,-74.473 z"
       id="path4988"
       inkscape:connector-curvature="0" />
  </g>
</svg>
