<?xml version="1.0" encoding="UTF-8" standalone="no"?>
<!-- Created with Inkscape (http://www.inkscape.org/) -->

<svg
   xmlns:dc="http://purl.org/dc/elements/1.1/"
   xmlns:cc="http://creativecommons.org/ns#"
   xmlns:rdf="http://www.w3.org/1999/02/22-rdf-syntax-ns#"
   xmlns:svg="http://www.w3.org/2000/svg"
   xmlns="http://www.w3.org/2000/svg"
   xmlns:sodipodi="http://sodipodi.sourceforge.net/DTD/sodipodi-0.dtd"
   xmlns:inkscape="http://www.inkscape.org/namespaces/inkscape"
   width="171.10783mm"
   height="57.339069mm"
   viewBox="0 0 606.2876 203.16993"
   id="svg4177"
   version="1.1"
   inkscape:version="0.91 r13725"
   sodipodi:docname="main-logo.svg">
  <defs
     id="defs4179" />
  <sodipodi:namedview
     id="base"
     pagecolor="#ffffff"
     bordercolor="#666666"
     borderopacity="1.0"
     inkscape:pageopacity="0.0"
     inkscape:pageshadow="2"
     inkscape:zoom="0.35"
     inkscape:cx="-254.75664"
     inkscape:cy="502.46548"
     inkscape:document-units="px"
     inkscape:current-layer="layer1"
     showgrid="false"
     fit-margin-top="0"
     fit-margin-left="0"
     fit-margin-right="0"
     fit-margin-bottom="0"
     inkscape:window-width="1440"
     inkscape:window-height="797"
     inkscape:window-x="0"
     inkscape:window-y="0"
     inkscape:window-maximized="1" />
  <metadata
     id="metadata4182">
    <rdf:RDF>
      <cc:Work
         rdf:about="">
        <dc:format>image/svg+xml</dc:format>
        <dc:type
           rdf:resource="http://purl.org/dc/dcmitype/StillImage" />
        <dc:title></dc:title>
      </cc:Work>
    </rdf:RDF>
  </metadata>
  <g
     inkscape:label="Vrstva 1"
     inkscape:groupmode="layer"
     id="layer1"
     transform="translate(-24.042353,-831.65775)">
    <path
       inkscape:connector-curvature="0"
       id="path4740"
       d="m 94.559203,1034.6249 c -8.81609,-1.0493 -17.20638,-2.9065 -24.704,-5.4684 -4.46427,-1.5253 -13.36856,-5.5769 -18.64491,-8.4836 -9.09552,-5.0106 -27.16794,-18.0177 -27.16794,-19.5533 0,-0.8389 14.04791,-20.75158 14.63976,-20.75158 0.30146,0 1.59342,0.97783 2.87102,2.17296 1.27759,1.19513 4.52996,3.93658 7.22749,6.09212 19.21619,15.3553 36.77551,22.1396 55.520477,21.4513 7.18261,-0.2637 10.56073,-1.0607 16.16361,-3.8135 3.46576,-1.7029 4.62937,-2.5034 6.81233,-4.6868 4.26096,-4.26182 6.2261,-7.70907 7.83001,-13.73545 1.02091,-3.83586 0.94572,-11.87653 -0.14671,-15.68912 -2.12215,-7.4063 -7.09145,-13.86366 -14.40903,-18.72382 -5.00241,-3.32248 -13.99279,-7.40077 -25.439757,-11.54019 -20.24776,-7.32196 -27.46489,-10.83365 -37.30558,-18.15207 -19.75348,-14.69044 -26.58364,-36.10774 -18.28444,-57.33438 6.18835,-15.82776 20.61042,-28.28986 37.74799,-32.61801 7.38038,-1.86394 11.79397,-2.28846 21.70849,-2.08801 14.846657,0.30015 22.786107,2.17548 36.086947,8.52389 7.71351,3.68161 23.38287,13.31407 23.38287,14.3742 0,0.70164 -11.1291,20.87474 -11.62013,21.06317 -0.21529,0.0826 -2.53571,-1.19378 -5.1565,-2.83642 -14.40158,-9.02655 -23.84261,-13.36378 -33.79505,-15.5255 -3.15358,-0.68497 -4.87337,-0.81174 -10.923427,-0.80517 -8.54405,0.009 -10.72062,0.46945 -17.12289,3.62011 -9.54888,4.69916 -15.69242,12.84723 -16.74178,22.20433 -0.82972,7.3986 2.15905,14.21473 9.10687,20.76896 5.12449,4.83417 11.61362,8.37636 24.82791,13.55268 4.720867,1.84926 11.814647,4.63335 15.763957,6.18687 23.08618,9.08128 36.93371,19.38482 44.35858,33.00593 1.9788,3.63015 3.90273,9.34616 4.84867,14.40548 0.93681,5.0105 0.94497,15.18924 0.0159,19.82546 -2.05034,10.23136 -6.5575,18.83846 -13.8823,26.51036 -9.24023,9.6781 -20.93212,15.6129 -34.97259,17.752 -3.18198,0.4848 -15.377107,0.6785 -18.595827,0.2955 z m 232.908127,0.01 c -7.07264,-0.8815 -16.8821,-3.5634 -22.59166,-6.1766 -3.94103,-1.8037 -10.33855,-5.7151 -14.05955,-8.5957 -5.13602,-3.9762 -11.80745,-11.1263 -15.28396,-16.3806 -3.34838,-5.06063 -8.11719,-14.46014 -10.13245,-19.97142 -2.56039,-7.00207 -4.80182,-17.53914 -6.30735,-29.65113 -0.96349,-7.75129 -0.96294,-33.13039 7.4e-4,-40.87399 1.53728,-12.35083 3.72141,-22.60315 6.31889,-29.66092 3.57836,-9.72301 10.42772,-21.36668 16.66857,-28.33597 5.34555,-5.96948 10.08762,-9.74652 17.74387,-14.13288 5.01064,-2.87067 7.96327,-4.109 14.59175,-6.11978 7.74171,-2.34847 12.01868,-2.92189 21.88861,-2.93461 7.62261,-0.01 9.15799,0.0908 12.8882,0.8444 14.9553,3.02149 27.88786,10.12813 38.52857,21.17203 4.85601,5.03999 7.40268,8.42653 10.82185,14.39062 7.0448,12.28837 10.3494,23.04401 12.96545,42.19947 0.75978,5.56338 0.82974,7.48909 0.82923,22.83052 0,15.39256 -0.0691,17.26357 -0.84381,23.01464 -1.83797,13.64339 -4.33478,23.67841 -7.99831,32.1459 -6.63569,15.33692 -15.42544,26.30872 -27.48768,34.31142 -8.8171,5.8497 -17.28135,9.2662 -27.97381,11.2913 -2.98828,0.566 -17.51771,1.0133 -20.56731,0.6333 z m 18.55944,-25.3394 c 12.78807,-2.9246 21.91852,-9.72814 28.38698,-21.15238 5.44115,-9.60984 8.05797,-18.27267 10.17241,-33.675 0.96404,-7.02233 1.37859,-27.10364 0.7238,-35.06055 -0.82348,-10.00662 -2.8741,-21.27205 -5.08863,-27.95509 -1.81716,-5.48388 -6.50578,-14.73051 -9.44312,-18.62325 -8.36422,-11.08475 -19.81098,-16.55034 -34.65738,-16.5482 -19.39811,0.003 -33.09715,8.32448 -41.51746,25.22039 -3.63701,7.29791 -5.46783,13.07372 -7.06174,22.27817 -1.95068,11.26465 -2.23124,15.02993 -2.22248,29.82697 0.007,12.29468 0.10065,14.49518 0.85146,20.06877 1.14552,8.50361 2.69852,16.1482 4.26595,20.99905 1.62601,5.0321 6.56557,14.9803 9.12772,18.38306 6.85804,9.10816 15.87395,14.62656 27.15706,16.62226 3.73283,0.6602 15.78774,0.4203 19.30543,-0.3842 z m 216.18985,25.3525 c -0.60759,-0.083 -3.01031,-0.4108 -5.33939,-0.7292 -4.845,-0.6622 -13.86177,-2.8777 -19.36459,-4.758 -4.46428,-1.5253 -13.36856,-5.5769 -18.64491,-8.4836 -9.05926,-4.9906 -27.16795,-18.0169 -27.16795,-19.5429 0,-0.928 14.05635,-20.76198 14.71398,-20.76198 0.34289,0 1.0252,0.43124 1.5162,0.95831 1.38257,1.48417 8.57522,7.45682 12.81076,10.63784 4.86356,3.65269 9.34633,6.46652 15.14716,9.50783 5.52919,2.8989 9.06983,4.3298 14.7965,5.9795 7.46201,2.1496 10.30735,2.5316 18.89692,2.5368 9.37024,0.01 12.06763,-0.535 18.54082,-3.7167 3.46486,-1.703 4.62995,-2.5047 6.81233,-4.6875 4.26098,-4.26182 6.2261,-7.70907 7.83002,-13.73545 1.02089,-3.83586 0.9457,-11.87653 -0.1467,-15.68912 -2.12217,-7.4063 -7.09146,-13.86366 -14.40904,-18.72382 -5.08996,-3.38062 -13.99887,-7.40933 -26.21563,-11.85496 -20.17075,-7.34009 -26.70485,-10.53065 -36.52971,-17.8373 -15.17231,-11.28349 -23.04004,-27.09572 -21.60562,-43.42209 1.92502,-21.91067 18.65982,-40.87075 41.06919,-46.5303 7.38038,-1.86394 11.79396,-2.28846 21.70847,-2.08802 14.88712,0.30097 22.76354,2.16121 36.08695,8.52297 7.71849,3.68547 23.38287,13.3155 23.38287,14.37513 0,0.70164 -11.1291,20.87474 -11.62014,21.06316 -0.21527,0.0826 -2.5357,-1.19377 -5.1565,-2.83641 -14.40156,-9.02656 -23.84261,-13.36379 -33.79502,-15.5255 -3.1536,-0.68498 -4.8734,-0.81175 -10.92345,-0.80518 -8.54405,0.009 -10.72061,0.46945 -17.12288,3.62011 -10.46315,5.14909 -16.80492,14.45164 -16.83442,24.69392 -0.0144,4.95329 1.44087,8.92835 5.00302,13.66706 5.41739,7.20671 12.72492,11.78015 29.02439,18.16499 4.72088,1.84926 11.81465,4.63336 15.76396,6.18687 26.76905,10.52999 41.84971,23.25623 47.26758,39.88813 2.02889,6.22838 2.62963,10.27831 2.61799,17.64973 -0.0114,7.15151 -0.5244,10.59494 -2.42335,16.26292 -2.84037,8.47796 -6.43338,14.18066 -13.19861,20.94816 -6.80442,6.8067 -13.75587,11.097 -22.87132,14.1159 -7.31074,2.4211 -10.59351,2.9143 -20.04579,3.0117 -4.65816,0.048 -8.9665,0.019 -9.57409,-0.063 z M 198.45865,949.07744 c -7.51355,-2.40049 -12.5971,-10.45756 -11.34929,-17.98784 0.47655,-2.8759 2.059,-6.25227 3.98464,-8.50177 4.66013,-5.44391 12.97926,-7.13736 19.42144,-3.95347 10.64032,5.25874 12.6192,18.74784 3.94116,26.86514 -4.20181,3.93029 -10.49187,5.33707 -15.99795,3.57794 z m 259.03302,0.14419 c -7.67157,-2.06297 -13.07493,-10.30135 -11.86281,-18.08701 0.45282,-2.90858 1.67605,-5.60287 3.69873,-8.14681 4.61121,-5.79954 13.04396,-7.63724 19.7766,-4.30978 3.12226,1.54311 4.76212,3.03783 6.81164,6.20882 1.81661,2.81068 2.52752,5.21022 2.52752,8.53131 0,1.44545 -0.24631,3.45754 -0.54738,4.47131 -0.65233,2.19662 -2.87989,5.7508 -4.73107,7.54866 -3.83752,3.72693 -10.18525,5.25927 -15.67323,3.7835 z"
       style="fill:#5fbdbc" />
    <path
       style="fill:#000000"
       d=""
       id="path4736"
       inkscape:connector-curvature="0" />
  </g>
</svg>
