<?xml version="1.0" encoding="UTF-8" standalone="no"?>
<!-- Created with Inkscape (http://www.inkscape.org/) -->

<svg
   xmlns:dc="http://purl.org/dc/elements/1.1/"
   xmlns:cc="http://creativecommons.org/ns#"
   xmlns:rdf="http://www.w3.org/1999/02/22-rdf-syntax-ns#"
   xmlns:svg="http://www.w3.org/2000/svg"
   xmlns="http://www.w3.org/2000/svg"
   xmlns:sodipodi="http://sodipodi.sourceforge.net/DTD/sodipodi-0.dtd"
   xmlns:inkscape="http://www.inkscape.org/namespaces/inkscape"
   width="210mm"
   height="297mm"
   viewBox="0 0 744.09448819 1052.3622047"
   id="svg5567"
   version="1.1"
   inkscape:version="0.91 r13725"
   sodipodi:docname="resistance.svg">
  <defs
     id="defs5569" />
  <sodipodi:namedview
     id="base"
     pagecolor="#ffffff"
     bordercolor="#666666"
     borderopacity="1.0"
     inkscape:pageopacity="0.0"
     inkscape:pageshadow="2"
     inkscape:zoom="0.35"
     inkscape:cx="375"
     inkscape:cy="520"
     inkscape:document-units="px"
     inkscape:current-layer="layer1"
     showgrid="false"
     inkscape:window-width="1440"
     inkscape:window-height="797"
     inkscape:window-x="0"
     inkscape:window-y="0"
     inkscape:window-maximized="1" />
  <metadata
     id="metadata5572">
    <rdf:RDF>
      <cc:Work
         rdf:about="">
        <dc:format>image/svg+xml</dc:format>
        <dc:type
           rdf:resource="http://purl.org/dc/dcmitype/StillImage" />
        <dc:title></dc:title>
      </cc:Work>
    </rdf:RDF>
  </metadata>
  <g
     inkscape:label="Vrstva 1"
     inkscape:groupmode="layer"
     id="layer1">
    <g
       id="g5588"
       transform="matrix(1.1245708,0,0,1.1245708,-25.902909,-103.95072)">
      <path
         style="fill:#0692cf"
         d="M 213.29339,888.16658 C 131.26603,816.78163 63.006749,757.26924 61.606104,755.91683 l -2.546627,-2.4589 0,-325.72367 c 0,-252.54168 0.161552,-325.88521 0.719048,-326.4427 0.956123,-0.95613 281.227845,-1.05651 281.818415,-0.10095 0.21011,0.33996 -1.16484,2.2889 -3.05544,4.33097 -7.69168,8.30794 -13.00225,19.51803 -15.83771,33.43191 -0.65557,3.21691 -1.19607,6.61551 -1.20111,7.55243 -0.005,0.93692 -0.22274,2.03981 -0.48377,2.45087 -0.37566,0.59159 -23.01126,0.77894 -108.59696,0.89881 l -108.12239,0.15143 -0.15044,280.86104 -0.15044,280.861 6.74171,5.95318 c 38.60348,34.08813 251.43643,218.77216 252.1167,218.77216 0.68026,0 213.51321,-184.68403 252.11672,-218.77216 l 6.74167,-5.95318 -0.1504,-280.861 -0.15046,-280.86104 -108.12239,-0.15143 c -85.58571,-0.11987 -108.22131,-0.30722 -108.59697,-0.89881 -0.26102,-0.41106 -0.47872,-1.51395 -0.48376,-2.45087 -0.005,-0.93692 -0.54555,-4.33552 -1.20111,-7.55243 -2.83547,-13.91388 -8.14603,-25.12397 -15.83771,-33.43191 -1.89061,-2.04207 -3.26555,-3.99101 -3.05545,-4.33097 0.59058,-0.95556 280.86227,-0.85518 281.81842,0.10095 0.5575,0.55749 0.71905,73.90102 0.71905,326.4427 l 0,325.72367 -2.54663,2.45872 c -4.18989,4.04536 -300.78856,262.04075 -301.24927,262.04075 -0.23361,0 -67.53805,-58.40586 -149.56541,-129.79082 z m 128.2817,-4.5735 c -0.15293,-0.41615 -0.34803,-4.93614 -0.43355,-10.04437 l -0.15548,-9.2877 -9.1379,-0.16538 -9.1379,-0.16544 0,-32.29255 c 0,-17.7609 -0.16366,-32.71901 -0.36371,-33.24032 -0.31589,-0.82319 -2.04055,-0.94782 -13.11843,-0.94782 -11.07787,0 -12.80253,0.12463 -13.11843,0.94782 -0.20004,0.52131 -0.36371,6.75192 -0.36371,13.84586 0,11.04907 -0.12515,12.84998 -0.87297,12.56302 -0.48014,-0.18425 -24.34492,-20.77184 -53.03287,-45.75024 l -52.1599,-45.41529 0.15291,-54.83067 0.15291,-54.83074 52.73016,0 52.73016,0 0.15736,21.41384 0.15736,21.41389 -20.82998,0.15754 -20.82998,0.15759 -0.1581,19.3244 -0.15811,19.32441 34.09896,0 c 30.54102,0 34.1369,-0.0989 34.46266,-0.94783 0.47546,-1.23904 0.47546,-186.81375 0,-188.05277 -0.31483,-0.82044 -1.98571,-0.94905 -12.43353,-0.95699 -6.6384,-0.005 -12.41013,-0.22521 -12.82605,-0.48924 -0.59192,-0.37575 -0.72212,-5.48386 -0.59921,-23.50967 l 0.15703,-23.02962 12.23768,-0.16254 c 7.7925,-0.10349 12.52647,-0.40221 13.03274,-0.82237 0.58463,-0.4852 0.79505,-2.68452 0.79505,-8.30977 0,-6.42451 -0.16797,-7.84406 -1.04861,-8.8618 -0.57673,-0.66653 -39.87718,-34.96265 -87.33432,-76.2136 -47.45714,-41.25096 -86.89241,-75.66927 -87.63393,-76.48515 l -1.34821,-1.48342 0,-52.87651 c 0,-40.32723 0.17065,-53.04716 0.71905,-53.59555 0.55236,-0.55237 20.04559,-0.71905 84.09325,-0.71905 l 83.37421,0 1.68824,-3.14583 c 5.41521,-10.09061 14.39534,-19.62908 23.15925,-24.59917 25.86509,-14.66832 56.6834,-4.15589 72.11504,24.59917 l 1.68824,3.14583 83.37421,0 c 64.04765,0 83.54091,0.16668 84.09326,0.71905 0.54839,0.5484 0.71905,13.27365 0.71905,53.61951 l 0,52.90047 -1.64782,1.73969 c -0.9063,0.95683 -40.20675,35.23771 -87.33432,76.17972 -47.12758,40.94201 -86.29321,75.09719 -87.03472,75.9004 -1.25212,1.35628 -1.34822,2.00799 -1.34822,9.14327 0,5.65264 0.2101,7.85727 0.79506,8.34274 0.50626,0.42016 5.24023,0.71888 13.03274,0.82237 l 12.23768,0.16254 0.15703,23.02962 c 0.12291,18.02581 -0.007,23.13392 -0.59921,23.50967 -0.41593,0.26403 -6.18766,0.48419 -12.82605,0.48924 -10.44783,0.008 -12.1187,0.13655 -12.43354,0.95699 -0.20004,0.5213 -0.36371,78.8455 -0.36371,174.05381 l 0,173.10605 -9.13789,0.16544 -9.1379,0.16538 -0.2996,9.8869 -0.29961,9.88691 -21.13788,0.15747 c -16.59337,0.12361 -21.19766,-0.006 -21.41594,-0.59921 z M 479.70232,325.84469 c 29.49593,-25.69158 54.10084,-47.28038 54.67758,-47.97512 0.91157,-1.09805 1.04861,-2.64857 1.04861,-11.86265 0,-7.44511 -0.21397,-10.81348 -0.71905,-11.31854 -0.54977,-0.5498 -15.01298,-0.71904 -61.44651,-0.71904 l -60.72747,0 -1.02075,1.85619 c -9.15695,16.65172 -21.24616,27.01643 -36.67352,31.4421 -5.48161,1.57252 -18.48663,1.57252 -23.96825,0 -15.42735,-4.42567 -27.51657,-14.79038 -36.67352,-31.4421 l -1.02074,-1.85619 -60.72747,0 c -46.43354,0 -60.89672,0.16924 -61.44652,0.71904 -0.50506,0.50506 -0.71905,3.87343 -0.71905,11.31854 0,9.21408 0.13706,10.7646 1.04862,11.86265 0.57673,0.69474 25.18164,22.28354 54.67757,47.97512 l 53.62897,46.71197 63.21627,0 63.21627,0 53.62896,-46.71197 z M 369.98578,256.64333 c 26.17124,-6.1691 35.31789,-40.90555 15.94894,-60.56963 -6.61903,-6.71988 -13.89596,-9.81468 -23.07763,-9.81468 -9.18168,0 -16.45861,3.0948 -23.07763,9.81468 -9.04108,9.17885 -12.51592,22.17194 -9.29629,34.76059 4.74954,18.57051 22.10535,29.90993 39.50261,25.80904 z"
         id="path5590"
         inkscape:connector-curvature="0" />
    </g>
    <path
       style="fill:#000000"
       d=""
       id="path5586"
       inkscape:connector-curvature="0" />
  </g>
</svg>
